<?xml version="1.0" encoding="UTF-8"?><svg id="Layer_2" xmlns="http://www.w3.org/2000/svg" viewBox="0 0 106.35 21.8"><defs><style>.cls-1{fill:#fff;}.cls-2{fill:#1e88e5;}</style></defs><g id="Layer_1-2"><g><g><path class="cls-1" d="M26.65,18.4v-1.8c.92,.68,1.92,1.02,3.03,1.02,1.48,0,2.21-.49,2.21-1.48,0-.28-.06-.52-.19-.71-.13-.19-.3-.37-.51-.52-.21-.15-.47-.29-.76-.41-.29-.12-.6-.24-.94-.37-.46-.18-.87-.37-1.22-.56-.35-.19-.65-.4-.88-.64s-.41-.5-.53-.81c-.12-.3-.18-.65-.18-1.06,0-.49,.11-.93,.34-1.31,.22-.38,.53-.7,.9-.95,.38-.26,.8-.45,1.29-.58,.48-.13,.98-.19,1.49-.19,.91,0,1.72,.16,2.44,.47v1.7c-.77-.51-1.66-.76-2.67-.76-.31,0-.6,.04-.85,.11-.25,.07-.47,.17-.65,.3-.18,.13-.32,.29-.42,.47-.1,.18-.15,.38-.15,.6,0,.27,.05,.5,.15,.69,.1,.18,.24,.35,.44,.49,.19,.14,.42,.27,.7,.39,.27,.12,.58,.24,.93,.38,.46,.18,.88,.36,1.25,.55s.68,.4,.94,.64c.26,.24,.46,.51,.6,.81,.14,.31,.21,.67,.21,1.1,0,.52-.12,.97-.34,1.35-.23,.38-.54,.7-.92,.95s-.82,.44-1.32,.56c-.5,.12-1.02,.18-1.57,.18-1.08,0-2.02-.21-2.81-.63Z"/><path class="cls-1" d="M40.58,19.02c-1.55,0-2.79-.49-3.72-1.47-.93-.98-1.39-2.28-1.39-3.9,0-1.76,.48-3.14,1.45-4.13,.96-.99,2.27-1.49,3.91-1.49s2.79,.48,3.67,1.45c.88,.96,1.32,2.3,1.32,4.01s-.47,3.02-1.42,4.02c-.95,1.01-2.22,1.51-3.81,1.51Zm.12-9.58c-1.08,0-1.93,.37-2.56,1.1s-.94,1.75-.94,3.04,.32,2.23,.95,2.94c.64,.72,1.49,1.08,2.55,1.08s1.92-.35,2.51-1.06c.58-.7,.88-1.71,.88-3s-.29-2.32-.88-3.04c-.58-.71-1.42-1.07-2.51-1.07Z"/><path class="cls-1" d="M55.65,18.29c-.81,.49-1.76,.73-2.87,.73-1.5,0-2.71-.49-3.62-1.46-.92-.97-1.38-2.24-1.38-3.79,0-1.73,.5-3.12,1.49-4.17s2.31-1.57,3.97-1.57c.92,0,1.74,.17,2.44,.51v1.72c-.78-.55-1.61-.82-2.5-.82-1.07,0-1.95,.38-2.64,1.15-.69,.77-1.03,1.78-1.03,3.03s.32,2.2,.97,2.91c.65,.71,1.51,1.07,2.6,1.07,.92,0,1.78-.3,2.58-.91v1.6Z"/><path class="cls-1" d="M59.06,5.61c-.3,0-.56-.1-.77-.31-.21-.21-.32-.46-.32-.78s.11-.58,.32-.78c.21-.21,.47-.31,.77-.31s.57,.1,.78,.31c.22,.21,.32,.47,.32,.78s-.11,.56-.32,.77c-.21,.21-.48,.32-.78,.32Zm.82,13.17h-1.68V8.28h1.68v10.5Z"/><path class="cls-1" d="M70.8,18.78h-1.68v-1.64h-.04c-.73,1.26-1.81,1.89-3.23,1.89-1.05,0-1.86-.28-2.46-.83-.59-.55-.89-1.29-.89-2.2,0-1.96,1.16-3.1,3.47-3.42l3.15-.44c0-1.78-.72-2.68-2.16-2.68-1.26,0-2.41,.43-3.42,1.29v-1.72c1.03-.66,2.22-.98,3.57-.98,2.47,0,3.7,1.31,3.7,3.92v6.83Zm-1.68-5.31l-2.53,.35c-.78,.11-1.37,.3-1.76,.58-.4,.28-.59,.77-.59,1.47,0,.51,.18,.93,.55,1.26,.37,.33,.85,.49,1.46,.49,.83,0,1.52-.29,2.07-.88,.54-.58,.82-1.32,.82-2.22v-1.05Z"/><path class="cls-1" d="M75.65,18.78h-1.68V3.23h1.68v15.54Z"/><path class="cls-1" d="M94.27,18.78h-1.71V8.91c0-.78,.05-1.73,.14-2.86h-.04c-.16,.66-.31,1.14-.44,1.43l-5.02,11.3h-.84l-5.01-11.22c-.14-.33-.29-.83-.44-1.51h-.04c.05,.59,.08,1.55,.08,2.88v9.84h-1.66V4.07h2.28l4.51,10.25c.35,.79,.57,1.37,.68,1.76h.06c.29-.81,.53-1.41,.71-1.8l4.6-10.21h2.15v14.7Z"/><path class="cls-1" d="M106.35,13.95h-7.41c.03,1.17,.34,2.07,.94,2.71s1.43,.95,2.48,.95c1.18,0,2.27-.39,3.26-1.17v1.58c-.92,.67-2.14,1-3.66,1s-2.65-.48-3.5-1.43c-.85-.95-1.27-2.29-1.27-4.02,0-1.63,.46-2.96,1.39-3.99,.93-1.03,2.08-1.54,3.45-1.54s2.44,.44,3.19,1.33c.75,.89,1.13,2.12,1.13,3.7v.88Zm-1.72-1.43c0-.97-.24-1.73-.7-2.27-.46-.54-1.1-.81-1.92-.81s-1.47,.28-2.02,.85-.9,1.31-1.03,2.23h5.67Z"/></g><g><path class="cls-1" d="M17.86,20.2c-3.57,2.19-7.91,2.07-11.28,.05l-6.59,1.26,2.18-6.26C.04,10.34,1.79,4.48,6.49,1.61,11.63-1.54,18.34,.08,21.47,5.22c3.15,5.14,1.53,11.84-3.61,14.98Z"/><circle class="cls-2" cx="7.36" cy="11.24" r="1.5"/><circle class="cls-2" cx="12.21" cy="11.24" r="1.5"/><circle class="cls-2" cx="17.05" cy="11.24" r="1.5"/></g></g></g></svg>