<?xml version="1.0" encoding="UTF-8"?><svg id="Layer_2" xmlns="http://www.w3.org/2000/svg" viewBox="0 0 107 29"><defs><style>.cls-1{fill:#fff;}.cls-2{fill:#0288d1;}.cls-3{fill:#3fa9f5;}</style></defs><g id="Layer_1-2"><g><rect class="cls-3" y="0" width="107" height="29" rx="4.23" ry="4.23"/><g><g><path class="cls-1" d="M35.46,21.78v-1.49c.76,.56,1.59,.84,2.5,.84,1.22,0,1.83-.41,1.83-1.22,0-.23-.05-.43-.16-.59-.1-.16-.25-.3-.42-.43-.18-.12-.39-.24-.63-.33-.24-.1-.5-.2-.78-.31-.38-.15-.72-.31-1.01-.46-.29-.16-.53-.33-.73-.53s-.34-.42-.44-.67c-.1-.25-.15-.54-.15-.87,0-.41,.09-.77,.28-1.08,.19-.31,.43-.58,.75-.79,.31-.21,.66-.37,1.06-.48,.4-.11,.81-.16,1.23-.16,.75,0,1.42,.13,2.02,.39v1.41c-.64-.42-1.37-.63-2.2-.63-.26,0-.49,.03-.7,.09-.21,.06-.39,.14-.54,.25-.15,.11-.27,.24-.35,.39-.08,.15-.12,.31-.12,.5,0,.23,.04,.42,.12,.57,.08,.15,.2,.29,.36,.41,.16,.12,.35,.23,.58,.32,.23,.1,.48,.2,.77,.31,.38,.15,.73,.3,1.03,.45s.56,.33,.78,.53c.21,.19,.38,.42,.5,.67,.12,.25,.17,.56,.17,.91,0,.43-.1,.8-.28,1.12-.19,.32-.44,.58-.76,.79s-.68,.36-1.09,.47c-.41,.1-.84,.15-1.3,.15-.89,0-1.67-.17-2.32-.52Z"/><path class="cls-1" d="M46.97,22.3c-1.28,0-2.31-.4-3.07-1.22-.77-.81-1.15-1.88-1.15-3.22,0-1.46,.4-2.59,1.19-3.41,.8-.82,1.87-1.23,3.23-1.23s2.3,.4,3.03,1.19c.73,.8,1.09,1.9,1.09,3.31s-.39,2.49-1.17,3.32c-.78,.83-1.83,1.25-3.15,1.25Zm.1-7.91c-.89,0-1.6,.3-2.12,.91s-.78,1.44-.78,2.51,.26,1.84,.79,2.43c.53,.59,1.23,.89,2.11,.89s1.59-.29,2.07-.87c.48-.58,.72-1.41,.72-2.48s-.24-1.92-.72-2.51c-.48-.59-1.17-.88-2.07-.88Z"/><path class="cls-1" d="M59.42,21.7c-.67,.4-1.46,.6-2.37,.6-1.24,0-2.23-.4-2.99-1.21-.76-.81-1.14-1.85-1.14-3.13,0-1.43,.41-2.58,1.23-3.44s1.91-1.3,3.28-1.3c.76,0,1.43,.14,2.02,.42v1.42c-.64-.45-1.33-.68-2.07-.68-.89,0-1.61,.32-2.18,.95-.57,.64-.85,1.47-.85,2.5s.27,1.82,.8,2.41c.53,.59,1.25,.88,2.15,.88,.76,0,1.47-.25,2.13-.75v1.32Z"/><path class="cls-1" d="M62.23,11.22c-.25,0-.46-.08-.63-.25-.18-.17-.26-.38-.26-.64s.09-.48,.26-.65c.17-.17,.39-.26,.63-.26s.47,.09,.65,.26c.18,.17,.27,.39,.27,.65s-.09,.46-.27,.64c-.18,.18-.39,.26-.65,.26Zm.68,10.88h-1.39V13.42h1.39v8.67Z"/><path class="cls-1" d="M71.93,22.09h-1.39v-1.36h-.03c-.61,1.04-1.49,1.56-2.67,1.56-.86,0-1.54-.23-2.03-.69-.49-.46-.73-1.06-.73-1.82,0-1.62,.95-2.56,2.86-2.83l2.6-.36c0-1.47-.6-2.21-1.79-2.21-1.04,0-1.99,.36-2.83,1.07v-1.42c.85-.54,1.84-.81,2.95-.81,2.04,0,3.06,1.08,3.06,3.24v5.64Zm-1.39-4.39l-2.09,.29c-.64,.09-1.13,.25-1.46,.48-.33,.23-.49,.63-.49,1.22,0,.42,.15,.77,.45,1.04,.3,.27,.7,.4,1.21,.4,.69,0,1.26-.24,1.71-.72,.45-.48,.67-1.09,.67-1.83v-.86Z"/><path class="cls-1" d="M75.94,22.09h-1.39V9.25h1.39v12.84Z"/><path class="cls-1" d="M91.32,22.09h-1.41V13.95c0-.64,.04-1.43,.12-2.36h-.03c-.14,.55-.26,.94-.36,1.18l-4.15,9.33h-.69l-4.14-9.27c-.12-.27-.24-.69-.36-1.25h-.03c.05,.49,.07,1.28,.07,2.38v8.13h-1.37V9.95h1.88l3.73,8.47c.29,.65,.47,1.14,.56,1.46h.05c.24-.67,.44-1.16,.58-1.49l3.8-8.44h1.78v12.15Z"/><path class="cls-1" d="M101.3,18.1h-6.12c.02,.97,.28,1.71,.78,2.24s1.18,.79,2.05,.79c.98,0,1.87-.32,2.69-.97v1.3c-.76,.55-1.77,.83-3.02,.83s-2.19-.39-2.89-1.18c-.7-.79-1.05-1.9-1.05-3.32,0-1.35,.38-2.45,1.15-3.3,.76-.85,1.72-1.27,2.85-1.27s2.01,.37,2.63,1.1c.62,.73,.93,1.75,.93,3.06v.73Zm-1.42-1.18c0-.8-.2-1.43-.58-1.87-.38-.45-.91-.67-1.59-.67s-1.21,.23-1.67,.7-.74,1.08-.85,1.84h4.68Z"/></g><g><path class="cls-1" d="M25.67,23.22c-3.57,2.19-7.91,2.07-11.28,.05l-6.59,1.26,2.18-6.26c-2.14-4.9-.39-10.77,4.31-13.64,5.14-3.15,11.84-1.53,14.98,3.61,3.15,5.14,1.53,11.84-3.61,14.98Z"/><circle class="cls-2" cx="15.17" cy="14.26" r="1.5"/><circle class="cls-2" cx="20.02" cy="14.26" r="1.5"/><circle class="cls-2" cx="24.86" cy="14.26" r="1.5"/></g></g></g></g></svg>